<?xml version="1.0" ?><svg enable-background="new 0 0 216.1557 223.9906" id="airbnb" version="1.1" viewBox="0 0 216.1557 223.9906" xml:space="preserve" xmlns="http://www.w3.org/2000/svg" xmlns:xlink="http://www.w3.org/1999/xlink"><g><path d="M202.1361,148.7172c-11.1602-24.3594-23.6855-50.8145-39.4219-83.2539   c-6.6426-13.6855-14.4688-29.5488-23.2891-44.625c-5.9258-10.1289-15.1484-17.1387-25.9707-19.7422   C102.8236-1.4586,91.7318,0.4867,82.22,6.5727c-9.2383,5.916-14.5,14.791-18.4277,22.6914l-9.1641,18.375   c-10.3145,20.6602-20.9785,42.0234-31.1797,63.1895l-0.2344,0.4863c-7.1797,14.8945-14.6035,30.2969-20.3066,46.1406   c-8.709,24.1992,2.7227,50.6758,26.5879,61.5898c18.2539,8.3516,37.1309,5.9648,56.1113-7.1133   c5.1406-3.5352,9.8633-7.6797,14.8633-12.0703c1.3203-1.1562,2.6719-2.3438,4.0723-3.5547c0.5547,0.75,1.2012,1.4922,1.9844,2.1445   c1.6367,1.3633,3.2539,2.7617,4.873,4.1641c5.0723,4.3906,10.3184,8.9336,16.2402,12.4492   c10.0137,5.9492,20.0488,8.9258,29.8398,8.9258c9.6992,0,19.1562-2.9219,28.0996-8.7656   C207.2298,201.0805,213.8841,174.3539,202.1361,148.7172z M104.095,159.5883c-8.75-12.3242-16.502-24.3047-17.375-39.0117   c-0.4961-8.3594,2.209-13.6777,8.5137-16.7344c3.1484-1.5273,6.207-2.291,9.1641-2.291c4.002,0,7.8164,1.3984,11.4062,4.1895   c5.5996,4.3516,7.0859,10.543,4.9746,20.6992C118.2025,138.8266,111.4036,149.6156,104.095,159.5883z M182.3939,184.5102   c-3.248,7.0781-9.6074,12.3945-17.4531,14.5898c-1.6387,0.457-3.4824,0.6406-5.4336,0.832   c-0.8984,0.0898-1.7988,0.1797-2.6914,0.293c-10.9082-0.2344-19.3848-5.6172-28.7285-13.6211   c-0.8164-0.6953-1.7109-1.4062-2.623-2.125c-2.1504-1.6992-5.3926-4.2617-5.668-5.7773c-0.0098-1.0938,2.3496-4.1211,3.6191-5.75   c0.875-1.1211,1.7344-2.2266,2.4551-3.293c7.0645-10.4258,15.5762-24.6211,18.709-41.9805   c4.0254-22.2695-8.748-43.0078-29.7148-48.2363c-22.1328-5.5215-44.1465,6.416-50.1133,27.1855   c-3.5137,12.2344-2.2324,25.1875,3.709,37.457c5.5273,11.4219,12.4961,22.2344,19.2812,32.7656   c0.5625,0.8711,0.8047,1.3789,0.9102,1.6484c-0.1152,0.1172-0.3027,0.2852-0.5957,0.5039   c-2.6523,1.9883-5.2402,4.1094-7.8281,6.2344c-5.6348,4.625-10.957,8.9922-16.9277,11.9961   c-7.0742,3.5586-14.8125,4.1406-21.793,1.6445c-6.9727-2.4961-12.543-7.7773-15.6855-14.875   c-3.3242-7.5-3.1855-15.1562,0.4082-22.7617c15.5234-32.8516,31.4961-66.3691,48.8281-102.4668   c2.3906-4.9785,5.0566-9.9746,7.6348-14.8066c1.5898-2.9805,3.1816-5.9609,4.7246-8.9629   c3.6367-7.0723,9.9043-11.2754,16.793-11.2754c0.0527,0,0.1074,0,0.1621,0c6.7637,0.0645,12.8379,4.2539,16.2441,11.207   l6.4062,13.0547c18.2441,37.1816,37.1113,75.6289,54.9629,113.7539C185.5208,169.2953,185.6654,177.3813,182.3939,184.5102z" fill="#1C71DA"/><path d="M194.8626,152.0492c-11.1348-24.3047-23.6367-50.709-39.3457-83.0938   c-6.5762-13.5488-14.3203-29.248-22.998-44.0781c-4.8145-8.2305-12.25-13.9141-20.9355-16.002   c-8.4922-2.0449-17.3926-0.4668-25.0508,4.4355c-7.5938,4.8633-12.1367,12.5938-15.5781,19.5176l-9.168,18.3828   c-10.3027,20.6367-20.9551,41.9746-31.1309,63.0918l-0.2344,0.4844c-7.0918,14.7109-14.4238,29.9258-19.9863,45.3789   c-7.2871,20.25,2.3359,42.4336,22.3887,51.6055c15.7324,7.1953,31.5156,5.0938,48.2461-6.4258   c4.7539-3.2734,9.0957-7.0859,14.125-11.4961c2.418-2.125,4.9434-4.3359,7.6641-6.6211l3.3438-2.8086l2.5039,3.5781   c0.4043,0.5742,0.7871,1.2031,1.1738,1.8477c0.582,0.9727,1.1855,1.9727,1.7656,2.457c1.6777,1.3984,3.332,2.832,4.9902,4.2656   c5.0293,4.3516,9.7793,8.4648,15.0898,11.6211c17.373,10.3242,34.0234,10.4375,49.4785,0.3398   C199.6888,196.4516,205.0501,174.2836,194.8626,152.0492z M104.095,159.5883c-8.75-12.3242-16.502-24.3047-17.375-39.0117   c-0.4961-8.3594,2.209-13.6777,8.5137-16.7344c3.1484-1.5273,6.207-2.291,9.1641-2.291c4.002,0,7.8164,1.3984,11.4062,4.1895   c5.5996,4.3516,7.0859,10.543,4.9746,20.6992C118.2025,138.8266,111.4036,149.6156,104.095,159.5883z M182.3939,184.5102   c-3.248,7.0781-9.6074,12.3945-17.4531,14.5898c-1.6387,0.457-3.4824,0.6406-5.4336,0.832   c-0.8984,0.0898-1.7988,0.1797-2.6914,0.293c-10.9082-0.2344-19.3848-5.6172-28.7285-13.6211   c-0.8164-0.6953-1.7109-1.4062-2.623-2.125c-2.1504-1.6992-5.3926-4.2617-5.668-5.7773c-0.0098-1.0938,2.3496-4.1211,3.6191-5.75   c0.875-1.1211,1.7344-2.2266,2.4551-3.293c7.0645-10.4258,15.5762-24.6211,18.709-41.9805   c4.0254-22.2695-8.748-43.0078-29.7148-48.2363c-22.1328-5.5215-44.1465,6.416-50.1133,27.1855   c-3.5137,12.2344-2.2324,25.1875,3.709,37.457c5.5273,11.4219,12.4961,22.2344,19.2812,32.7656   c0.5625,0.8711,0.8047,1.3789,0.9102,1.6484c-0.1152,0.1172-0.3027,0.2852-0.5957,0.5039   c-2.6523,1.9883-5.2402,4.1094-7.8281,6.2344c-5.6348,4.625-10.957,8.9922-16.9277,11.9961   c-7.0742,3.5586-14.8125,4.1406-21.793,1.6445c-6.9727-2.4961-12.543-7.7773-15.6855-14.875   c-3.3242-7.5-3.1855-15.1562,0.4082-22.7617c15.5234-32.8516,31.4961-66.3691,48.8281-102.4668   c2.3906-4.9785,5.0566-9.9746,7.6348-14.8066c1.5898-2.9805,3.1816-5.9609,4.7246-8.9629   c3.6367-7.0723,9.9043-11.2754,16.793-11.2754c0.0527,0,0.1074,0,0.1621,0c6.7637,0.0645,12.8379,4.2539,16.2441,11.207   l6.4062,13.0547c18.2441,37.1816,37.1113,75.6289,54.9629,113.7539C185.5208,169.2953,185.6654,177.3813,182.3939,184.5102z" fill="#D0E8FF"/><path d="M120.7142,99.4242c-8.7207-6.7832-18.7422-7.7461-28.9727-2.7812   c-6.4102,3.1113-13.8711,9.8691-13.0059,24.4102c1.0898,18.3789,10.9121,32.1016,21.3125,46.6367l3.8828,5.4258l3.2812-4.332   c9.0215-11.9141,18.1035-24.8711,21.3984-40.7187C130.3411,119.7484,131.4036,107.7328,120.7142,99.4242z M120.7786,126.4399   c-2.5762,12.3867-9.375,23.1758-16.6836,33.1484c-8.75-12.3242-16.502-24.3047-17.375-39.0117   c-0.4961-8.3594,2.209-13.6777,8.5137-16.7344c3.1484-1.5273,6.207-2.291,9.1641-2.291c4.002,0,7.8164,1.3984,11.4062,4.1895   C121.4036,110.0922,122.89,116.2836,120.7786,126.4399z" fill="#1C71DA"/><path d="M189.2318,158.3539c-17.8828-38.1914-36.7656-76.6738-55.0273-113.8867l-6.4043-13.0527   c-4.7676-9.7266-13.4961-15.5898-23.3516-15.6855c-10.0801,0.0469-19.0684,5.7422-24.1445,15.6152   c-1.5273,2.9688-3.0977,5.9121-4.6699,8.8574c-2.6172,4.9062-5.3242,9.9785-7.7871,15.1113   c-17.3398,36.1113-33.3184,69.6426-48.8516,102.5098c-4.5664,9.6641-4.7344,19.8359-0.4902,29.4219   c4.0391,9.1172,11.25,15.9219,20.3047,19.1641c3.7344,1.3359,7.623,2,11.5371,2c5.5879,0,11.2285-1.3516,16.5508-4.0273   c6.7637-3.4062,12.6816-8.2656,18.4062-12.9609c2.4961-2.0469,4.9922-4.0977,7.5508-6.0195c6.6855-5.0078,3-10.7305,1.5645-12.9609   c-6.6094-10.2539-13.4434-20.8555-18.7598-31.8399c-5.1387-10.6172-6.2227-21.3047-3.2207-31.7637   c4.7734-16.6055,22.5625-26.1055,40.4883-21.6328c16.8242,4.1953,27.0469,20.9844,23.7812,39.0527   c-2.2383,12.3945-7.623,24.3984-17.459,38.9141c-0.627,0.9258-1.3809,1.8867-2.1406,2.8594   c-2.7695,3.5508-5.9082,7.5781-5.2148,11.9141v0.0078c0.7402,4.5859,4.9219,7.8906,8.6113,10.8047   c0.8262,0.6523,1.6367,1.293,2.377,1.9258c9.2988,7.9648,19.8672,15.3594,34.1094,15.5469l0.2969,0.0039l0.293-0.0391   c0.8965-0.1211,1.8027-0.2109,2.709-0.3008c2.209-0.2148,4.4941-0.4414,6.8066-1.0898   c10.1113-2.8281,18.3379-9.7344,22.5684-18.9531C193.9329,178.5453,193.7786,168.0727,189.2318,158.3539z M182.3939,184.5102   c-3.248,7.0781-9.6074,12.3945-17.4531,14.5898c-1.6387,0.457-3.4824,0.6406-5.4336,0.832   c-0.8984,0.0898-1.7988,0.1797-2.6914,0.293c-10.9082-0.2344-19.3848-5.6172-28.7285-13.6211   c-0.8164-0.6953-1.7109-1.4062-2.623-2.125c-2.1504-1.6992-5.3926-4.2617-5.668-5.7773c-0.0098-1.0938,2.3496-4.1211,3.6191-5.75   c0.875-1.1211,1.7344-2.2266,2.4551-3.293c7.0645-10.4258,15.5762-24.6211,18.709-41.9805   c4.0254-22.2695-8.748-43.0078-29.7148-48.2363c-22.1328-5.5215-44.1465,6.416-50.1133,27.1855   c-3.5137,12.2344-2.2324,25.1875,3.709,37.457c5.5273,11.4219,12.4961,22.2344,19.2812,32.7656   c0.5625,0.8711,0.8047,1.3789,0.9102,1.6484c-0.1152,0.1172-0.3027,0.2852-0.5957,0.5039   c-2.6523,1.9883-5.2402,4.1094-7.8281,6.2344c-5.6348,4.625-10.957,8.9922-16.9277,11.9961   c-7.0742,3.5586-14.8125,4.1406-21.793,1.6445c-6.9727-2.4961-12.543-7.7773-15.6855-14.875   c-3.3242-7.5-3.1855-15.1562,0.4082-22.7617c15.5234-32.8516,31.4961-66.3691,48.8281-102.4668   c2.3906-4.9785,5.0566-9.9746,7.6348-14.8066c1.5898-2.9805,3.1816-5.9609,4.7246-8.9629   c3.6367-7.0723,9.9043-11.2754,16.793-11.2754c0.0527,0,0.1074,0,0.1621,0c6.7637,0.0645,12.8379,4.2539,16.2441,11.207   l6.4062,13.0547c18.2441,37.1816,37.1113,75.6289,54.9629,113.7539C185.5208,169.2953,185.6654,177.3813,182.3939,184.5102z" fill="#1C71DA"/></g><path d="M100.1557,70.517c-1.0239,0-2.0474-0.3906-2.8286-1.1714c-1.562-1.5625-1.562-4.0947,0-5.6572  l14.1421-14.1421c1.5625-1.5615,4.0947-1.5615,5.6572,0c1.562,1.5625,1.562,4.0947,0,5.6572l-14.1421,14.1421  C102.2031,70.1264,101.1797,70.517,100.1557,70.517z" fill="#FF5D5D"/><path d="M114.2978,70.5175c-1.0239,0-2.0474-0.3906-2.8286-1.1714L97.3271,55.2035  c-1.562-1.5625-1.562-4.0952,0-5.6572c1.563-1.561,4.0952-1.561,5.6572,0l14.1421,14.1426c1.562,1.5625,1.562,4.0952,0,5.6572  C116.3452,70.1269,115.3213,70.5175,114.2978,70.5175z" fill="#FF5D5D"/><path d="M202.1557,46.517c-7.7197,0-14-6.2803-14-14s6.2803-14,14-14s14,6.2803,14,14  S209.8755,46.517,202.1557,46.517z M202.1557,26.517c-3.3086,0-6,2.6914-6,6s2.6914,6,6,6s6-2.6914,6-6  S205.4643,26.517,202.1557,26.517z" fill="#00D40B"/><path d="M159.4692,181.144c-1.0239,0-2.0474-0.3906-2.8286-1.1719l-11.3135-11.3135  c-1.562-1.5615-1.562-4.0947,0-5.6562l11.3135-11.3135c1.5625-1.5625,4.0952-1.5625,5.6567,0l11.314,11.3135  c0.7505,0.75,1.1719,1.7676,1.1719,2.8281s-0.4214,2.0781-1.1719,2.8281l-11.314,11.3135  C161.5166,180.7533,160.4927,181.144,159.4692,181.144z M153.8125,165.8305l5.6567,5.6562l5.6572-5.6562l-5.6572-5.6562  L153.8125,165.8305z" fill="#FFC504"/></svg>
